M48
METRIC,LZ,000.000
;FILE_FORMAT=3:3
;TYPE=PLATED
;Layer: PTH_Through
;EasyEDA v6.5.20, 2023-08-23 00:17:06
;a67cddfb3fce44daa9051d46cbbcc19f,10
;Gerber Generator version 0.2
;Holesize 1 = 0.800 mm
T01C0.800
;Holesize 2 = 0.889 mm
T02C0.889
%
G05
G90
T01
X085725Y006350
X083185Y006350
X085725Y008890
X083185Y008890
X085725Y011430
X083185Y011430
X085725Y013970
X083185Y013970
X085725Y016510
X083185Y016510
X085725Y019050
X083185Y019050
X085725Y021590
X083185Y021590
X085725Y024130
X083185Y024130
X085725Y026670
X083185Y026670
X085725Y029210
X083185Y029210
X085725Y031750
X083185Y031750
X085725Y034290
X083185Y034290
X085725Y036830
X083185Y036830
X085725Y039370
X083185Y039370
X085725Y041910
X083185Y041910
X085725Y044450
X083185Y044450
X085725Y046990
X083185Y046990
X085725Y049530
X083185Y049530
X085725Y052070
X083185Y052070
X085725Y054610
X083185Y054610
X085725Y057150
X083185Y057150
X085725Y059690
X083185Y059690
X085725Y062230
X083185Y062230
X085725Y064770
X083185Y064770
X085725Y067310
X083185Y067310
X085725Y069850
X083185Y069850
X085725Y072390
X083185Y072390
X085725Y074930
X083185Y074930
X085725Y077470
X083185Y077470
X085725Y080010
X083185Y080010
X085725Y082550
X083185Y082550
X088265Y074930
X090805Y072390
X088265Y069850
X090805Y069850
X088265Y067310
X090805Y067310
X088265Y064770
X090805Y064770
X088265Y062230
X090805Y062230
X088265Y059690
X090805Y059690
X088265Y057150
X090805Y057150
X088265Y054610
X090805Y054610
X088265Y052070
X090805Y052070
X088265Y049530
X090805Y049530
X088265Y046990
X090805Y046990
X088265Y044450
X090805Y044450
X088265Y041910
X090805Y041910
X088265Y039370
X090805Y039370
X088265Y036830
X090805Y036830
X088265Y034290
X090805Y034290
X088265Y031750
X090805Y031750
X088265Y029210
X090805Y029210
X088265Y026670
X090805Y026670
X083185Y085090
X085725Y085090
X090805Y074930
X088265Y072390
T02
X008890Y036830
X011430Y036830
X008890Y034290
X011430Y034290
X008890Y031750
X011430Y031750
X008890Y029210
X011430Y029210
X008890Y026670
X011430Y026670
X008890Y024130
X011430Y024130
X008890Y021590
X011430Y021590
X008890Y019050
X011430Y019050
M30
