M48
METRIC,LZ,000.000
;FILE_FORMAT=3:3
;TYPE=PLATED
;Layer: PTH_Through_Via
;EasyEDA v6.5.20, 2023-08-23 00:17:06
;a67cddfb3fce44daa9051d46cbbcc19f,10
;Gerber Generator version 0.2
;Holesize 1 = 0.305 mm
T01C0.305
;Holesize 2 = 0.306 mm
T02C0.306
%
G05
G90
T01
X051054Y020320
X067056Y025400
X069088Y025400
X068072Y025400
X052070Y020320
X053340Y020320
T02
X001072Y074098
X001072Y069098
X001072Y064098
X001072Y059098
X001072Y054098
X001072Y049098
X001072Y044098
X001072Y039098
X001072Y034098
X001072Y029098
X001072Y024098
X001072Y019098
X006072Y074098
X006072Y069098
X006072Y064098
X006072Y059098
X006072Y054098
X006072Y049098
X006072Y044098
X006072Y039098
X006072Y034098
X006072Y029098
X006072Y024098
X006072Y019098
X011072Y074098
X011072Y069098
X011072Y064098
X011072Y059098
X011072Y054098
X011072Y049098
X011072Y044098
X011072Y039098
X016072Y089098
X016072Y084098
X016072Y079098
X016072Y074098
X016072Y069098
X016072Y064098
X016072Y059098
X016072Y054098
X016072Y049098
X016072Y044098
X016072Y039098
X016072Y034098
X016072Y029098
X016072Y024098
X016072Y019098
X016072Y014098
X016072Y009098
X016072Y004098
X021072Y089098
X021072Y084098
X021072Y079098
X021072Y074098
X021072Y069098
X021072Y064098
X021072Y059098
X021072Y054098
X021072Y049098
X021072Y044098
X021072Y039098
X021072Y034098
X021072Y029098
X021072Y024098
X021072Y019098
X021072Y014098
X021072Y009098
X021072Y004098
X026072Y089098
X026072Y084098
X026072Y079098
X026072Y074098
X026072Y069098
X026072Y064098
X026072Y059098
X026072Y054098
X026072Y049098
X026072Y044098
X026072Y039098
X026072Y034098
X026072Y029098
X026072Y024098
X026072Y019098
X026072Y014098
X026072Y009098
X026072Y004098
X031072Y089098
X031072Y064098
X031072Y059098
X031072Y054098
X031072Y049098
X031072Y044098
X031072Y039098
X031072Y034098
X031072Y029098
X031072Y024098
X031072Y019098
X031072Y014098
X031072Y009098
X031072Y004098
X036072Y089098
X036072Y064098
X036072Y059098
X036072Y054098
X036072Y049098
X036072Y044098
X036072Y039098
X036072Y034098
X036072Y029098
X036072Y024098
X036072Y019098
X036072Y014098
X036072Y009098
X036072Y004098
X041072Y089098
X041072Y064098
X041072Y059098
X041072Y054098
X041072Y049098
X041072Y044098
X041072Y039098
X041072Y034098
X041072Y029098
X041072Y024098
X041072Y019098
X041072Y014098
X041072Y009098
X041072Y004098
X046072Y089098
X046072Y064098
X046072Y059098
X046072Y054098
X046072Y049098
X046072Y044098
X046072Y039098
X046072Y034098
X046072Y029098
X046072Y024098
X046072Y019098
X046072Y014098
X046072Y009098
X046072Y004098
X051072Y089098
X051072Y079098
X051072Y064098
X051072Y059098
X051072Y054098
X051072Y049098
X051072Y044098
X051072Y039098
X051072Y034098
X051072Y029098
X051072Y024098
X051072Y019098
X051072Y014098
X051072Y009098
X051072Y004098
X056072Y089098
X056072Y079098
X056072Y064098
X056072Y059098
X056072Y054098
X056072Y049098
X056072Y044098
X056072Y039098
X056072Y034098
X056072Y029098
X056072Y024098
X056072Y019098
X056072Y014098
X056072Y009098
X056072Y004098
X061072Y089098
X061072Y084098
X061072Y079098
X061072Y074098
X061072Y069098
X061072Y064098
X061072Y059098
X061072Y054098
X061072Y049098
X061072Y044098
X061072Y039098
X061072Y034098
X061072Y029098
X061072Y024098
X061072Y019098
X061072Y014098
X061072Y009098
X061072Y004098
X066072Y089098
X066072Y084098
X066072Y079098
X066072Y074098
X066072Y069098
X066072Y064098
X066072Y059098
X066072Y054098
X066072Y049098
X066072Y044098
X066072Y039098
X066072Y034098
X066072Y029098
X066072Y024098
X066072Y019098
X066072Y014098
X066072Y009098
X066072Y004098
X071072Y089098
X071072Y084098
X071072Y079098
X071072Y074098
X071072Y069098
X071072Y064098
X071072Y059098
X071072Y054098
X071072Y049098
X071072Y044098
X071072Y039098
X071072Y019098
X071072Y014098
X071072Y009098
X071072Y004098
X076072Y089098
X076072Y084098
X076072Y079098
X076072Y074098
X076072Y069098
X076072Y064098
X076072Y059098
X076072Y054098
X076072Y049098
X076072Y044098
X076072Y039098
X076072Y034098
X076072Y014098
X076072Y009098
X076072Y004098
X081072Y089098
X081072Y084098
X081072Y079098
X081072Y074098
X081072Y064098
X081072Y059098
X081072Y054098
X081072Y049098
X081072Y044098
X081072Y039098
X081072Y034098
X081072Y029098
X081072Y009098
X081072Y004098
X091072Y024098
X091072Y019098
X091072Y014098
M30
