G04 Layer: BottomSolderMaskLayer*
G04 EasyEDA v6.5.20, 2023-08-23 00:17:06*
G04 a67cddfb3fce44daa9051d46cbbcc19f,10*
G04 Gerber Generator version 0.2*
G04 Scale: 100 percent, Rotated: No, Reflected: No *
G04 Dimensions in millimeters *
G04 leading zeros omitted , absolute positions ,4 integer and 5 decimal *
%FSLAX45Y45*%
%MOMM*%

%AMMACRO1*1,1,$1,$2,$3*1,1,$1,$4,$5*1,1,$1,0-$2,0-$3*1,1,$1,0-$4,0-$5*20,1,$1,$2,$3,$4,$5,0*20,1,$1,$4,$5,0-$2,0-$3,0*20,1,$1,0-$2,0-$3,0-$4,0-$5,0*20,1,$1,0-$4,0-$5,$2,$3,0*4,1,4,$2,$3,$4,$5,0-$2,0-$3,0-$4,0-$5,$2,$3,0*%
%ADD10MACRO1,0.2032X-0.75X-0.75X-0.75X0.75*%
%ADD11C,1.7032*%
%ADD12C,1.6764*%
%ADD13R,1.6764X1.6764*%

%LPD*%
D10*
G01*
X8572500Y635000D03*
D11*
G01*
X8318500Y635000D03*
G01*
X8572500Y889000D03*
G01*
X8318500Y889000D03*
G01*
X8572500Y1143000D03*
G01*
X8318500Y1143000D03*
G01*
X8572500Y1397000D03*
G01*
X8318500Y1397000D03*
G01*
X8572500Y1651000D03*
G01*
X8318500Y1651000D03*
G01*
X8572500Y1905000D03*
G01*
X8318500Y1905000D03*
G01*
X8572500Y2159000D03*
G01*
X8318500Y2159000D03*
G01*
X8572500Y2413000D03*
G01*
X8318500Y2413000D03*
G01*
X8572500Y2667000D03*
G01*
X8318500Y2667000D03*
G01*
X8572500Y2921000D03*
G01*
X8318500Y2921000D03*
G01*
X8572500Y3175000D03*
G01*
X8318500Y3175000D03*
G01*
X8572500Y3429000D03*
G01*
X8318500Y3429000D03*
G01*
X8572500Y3683000D03*
G01*
X8318500Y3683000D03*
G01*
X8572500Y3937000D03*
G01*
X8318500Y3937000D03*
G01*
X8572500Y4191000D03*
G01*
X8318500Y4191000D03*
G01*
X8572500Y4445000D03*
G01*
X8318500Y4445000D03*
G01*
X8572500Y4699000D03*
G01*
X8318500Y4699000D03*
G01*
X8572500Y4953000D03*
G01*
X8318500Y4953000D03*
G01*
X8572500Y5207000D03*
G01*
X8318500Y5207000D03*
G01*
X8572500Y5461000D03*
G01*
X8318500Y5461000D03*
G01*
X8572500Y5715000D03*
G01*
X8318500Y5715000D03*
G01*
X8572500Y5969000D03*
G01*
X8318500Y5969000D03*
G01*
X8572500Y6223000D03*
G01*
X8318500Y6223000D03*
G01*
X8572500Y6477000D03*
G01*
X8318500Y6477000D03*
G01*
X8572500Y6731000D03*
G01*
X8318500Y6731000D03*
G01*
X8572500Y6985000D03*
G01*
X8318500Y6985000D03*
G01*
X8572500Y7239000D03*
G01*
X8318500Y7239000D03*
G01*
X8572500Y7493000D03*
G01*
X8318500Y7493000D03*
G01*
X8572500Y7747000D03*
G01*
X8318500Y7747000D03*
G01*
X8572500Y8001000D03*
G01*
X8318500Y8001000D03*
G01*
X8572500Y8255000D03*
G01*
X8318500Y8255000D03*
G01*
X8826500Y7493000D03*
G01*
X9080500Y7239000D03*
G01*
X8826500Y6985000D03*
G01*
X9080500Y6985000D03*
G01*
X8826500Y6731000D03*
G01*
X9080500Y6731000D03*
G01*
X8826500Y6477000D03*
G01*
X9080500Y6477000D03*
G01*
X8826500Y6223000D03*
G01*
X9080500Y6223000D03*
G01*
X8826500Y5969000D03*
G01*
X9080500Y5969000D03*
G01*
X8826500Y5715000D03*
G01*
X9080500Y5715000D03*
G01*
X8826500Y5461000D03*
G01*
X9080500Y5461000D03*
G01*
X8826500Y5207000D03*
G01*
X9080500Y5207000D03*
G01*
X8826500Y4953000D03*
G01*
X9080500Y4953000D03*
G01*
X8826500Y4699000D03*
G01*
X9080500Y4699000D03*
G01*
X8826500Y4445000D03*
G01*
X9080500Y4445000D03*
G01*
X8826500Y4191000D03*
G01*
X9080500Y4191000D03*
G01*
X8826500Y3937000D03*
G01*
X9080500Y3937000D03*
G01*
X8826500Y3683000D03*
G01*
X9080500Y3683000D03*
G01*
X8826500Y3429000D03*
G01*
X9080500Y3429000D03*
G01*
X8826500Y3175000D03*
G01*
X9080500Y3175000D03*
G01*
X8826500Y2921000D03*
G01*
X9080500Y2921000D03*
G01*
X8826500Y2667000D03*
D10*
G01*
X9080500Y2667000D03*
D11*
G01*
X8318500Y8509000D03*
G01*
X8572500Y8509000D03*
G01*
X9080500Y7493000D03*
G01*
X8826500Y7239000D03*
D12*
G01*
X889000Y3683000D03*
G01*
X1143000Y3683000D03*
G01*
X889000Y3429000D03*
G01*
X1143000Y3429000D03*
G01*
X889000Y3175000D03*
G01*
X1143000Y3175000D03*
G01*
X889000Y2921000D03*
G01*
X1143000Y2921000D03*
G01*
X889000Y2667000D03*
G01*
X1143000Y2667000D03*
G01*
X889000Y2413000D03*
G01*
X1143000Y2413000D03*
G01*
X889000Y2159000D03*
G01*
X1143000Y2159000D03*
G01*
X889000Y1905000D03*
D13*
G01*
X1143000Y1905000D03*
M02*
