G04 Layer: TopSilkscreenLayer*
G04 EasyEDA v6.5.20, 2023-08-23 00:17:06*
G04 a67cddfb3fce44daa9051d46cbbcc19f,10*
G04 Gerber Generator version 0.2*
G04 Scale: 100 percent, Rotated: No, Reflected: No *
G04 Dimensions in millimeters *
G04 leading zeros omitted , absolute positions ,4 integer and 5 decimal *
%FSLAX45Y45*%
%MOMM*%

%ADD10C,0.2032*%
%ADD11C,0.1524*%
%ADD12C,0.2000*%
%ADD13C,0.2540*%

%LPD*%
D10*
X173736Y2103120D02*
G01*
X173736Y1955800D01*
X100076Y2029460D02*
G01*
X247395Y2029460D01*
X301244Y2094992D02*
G01*
X317754Y2103120D01*
X342137Y2127757D01*
X342137Y1955800D01*
X404368Y2086610D02*
G01*
X404368Y2094992D01*
X412495Y2111247D01*
X420623Y2119376D01*
X437134Y2127757D01*
X469900Y2127757D01*
X486155Y2119376D01*
X494284Y2111247D01*
X502665Y2094992D01*
X502665Y2078481D01*
X494284Y2062226D01*
X478028Y2037587D01*
X396239Y1955800D01*
X510794Y1955800D01*
X564642Y2127757D02*
G01*
X630173Y1955800D01*
X695705Y2127757D02*
G01*
X630173Y1955800D01*
X173736Y2611120D02*
G01*
X173736Y2463800D01*
X100076Y2537460D02*
G01*
X247395Y2537460D01*
X399542Y2635757D02*
G01*
X317754Y2635757D01*
X309371Y2562097D01*
X317754Y2570226D01*
X342137Y2578354D01*
X366776Y2578354D01*
X391160Y2570226D01*
X407670Y2553715D01*
X415797Y2529331D01*
X415797Y2512821D01*
X407670Y2488437D01*
X391160Y2471928D01*
X366776Y2463800D01*
X342137Y2463800D01*
X317754Y2471928D01*
X309371Y2480055D01*
X301244Y2496565D01*
X469900Y2635757D02*
G01*
X535178Y2463800D01*
X600710Y2635757D02*
G01*
X535178Y2463800D01*
X100076Y3045460D02*
G01*
X247395Y3045460D01*
X399542Y3143757D02*
G01*
X317754Y3143757D01*
X309371Y3070097D01*
X317754Y3078226D01*
X342137Y3086354D01*
X366776Y3086354D01*
X391160Y3078226D01*
X407670Y3061715D01*
X415797Y3037331D01*
X415797Y3020821D01*
X407670Y2996437D01*
X391160Y2979928D01*
X366776Y2971800D01*
X342137Y2971800D01*
X317754Y2979928D01*
X309371Y2988055D01*
X301244Y3004565D01*
X469900Y3143757D02*
G01*
X535178Y2971800D01*
X600710Y3143757D02*
G01*
X535178Y2971800D01*
X100076Y3553460D02*
G01*
X247395Y3553460D01*
X301244Y3618992D02*
G01*
X317754Y3627120D01*
X342137Y3651504D01*
X342137Y3479800D01*
X404368Y3610610D02*
G01*
X404368Y3618992D01*
X412495Y3635247D01*
X420623Y3643376D01*
X437134Y3651504D01*
X469900Y3651504D01*
X486155Y3643376D01*
X494284Y3635247D01*
X502665Y3618992D01*
X502665Y3602481D01*
X494284Y3586226D01*
X478028Y3561587D01*
X396239Y3479800D01*
X510794Y3479800D01*
X564642Y3651504D02*
G01*
X630173Y3479800D01*
X695705Y3651504D02*
G01*
X630173Y3479800D01*
X1472692Y3128771D02*
G01*
X1464563Y3145028D01*
X1448054Y3161537D01*
X1431797Y3169665D01*
X1399031Y3169665D01*
X1382776Y3161537D01*
X1366265Y3145028D01*
X1358137Y3128771D01*
X1350010Y3104134D01*
X1350010Y3063239D01*
X1358137Y3038602D01*
X1366265Y3022345D01*
X1382776Y3006089D01*
X1399031Y2997707D01*
X1431797Y2997707D01*
X1448054Y3006089D01*
X1464563Y3022345D01*
X1472692Y3038602D01*
X1472692Y3063239D01*
X1431797Y3063239D02*
G01*
X1472692Y3063239D01*
X1526794Y3169665D02*
G01*
X1526794Y2997707D01*
X1526794Y3169665D02*
G01*
X1641347Y2997707D01*
X1641347Y3169665D02*
G01*
X1641347Y2997707D01*
X1695195Y3169665D02*
G01*
X1695195Y2997707D01*
X1695195Y3169665D02*
G01*
X1752600Y3169665D01*
X1776984Y3161537D01*
X1793494Y3145028D01*
X1801621Y3128771D01*
X1809750Y3104134D01*
X1809750Y3063239D01*
X1801621Y3038602D01*
X1793494Y3022345D01*
X1776984Y3006089D01*
X1752600Y2997707D01*
X1695195Y2997707D01*
X1472692Y3636771D02*
G01*
X1464563Y3653028D01*
X1448054Y3669537D01*
X1431797Y3677665D01*
X1399031Y3677665D01*
X1382776Y3669537D01*
X1366265Y3653028D01*
X1358137Y3636771D01*
X1350010Y3612134D01*
X1350010Y3571239D01*
X1358137Y3546602D01*
X1366265Y3530345D01*
X1382776Y3514089D01*
X1399031Y3505707D01*
X1431797Y3505707D01*
X1448054Y3514089D01*
X1464563Y3530345D01*
X1472692Y3546602D01*
X1472692Y3571239D01*
X1431797Y3571239D02*
G01*
X1472692Y3571239D01*
X1526794Y3677665D02*
G01*
X1526794Y3505707D01*
X1526794Y3677665D02*
G01*
X1641347Y3505707D01*
X1641347Y3677665D02*
G01*
X1641347Y3505707D01*
X1695195Y3677665D02*
G01*
X1695195Y3505707D01*
X1695195Y3677665D02*
G01*
X1752600Y3677665D01*
X1776984Y3669537D01*
X1793494Y3653028D01*
X1801621Y3636771D01*
X1809750Y3612134D01*
X1809750Y3571239D01*
X1801621Y3546602D01*
X1793494Y3530345D01*
X1776984Y3514089D01*
X1752600Y3505707D01*
X1695195Y3505707D01*
X1472692Y2620771D02*
G01*
X1464563Y2637028D01*
X1448054Y2653537D01*
X1431797Y2661665D01*
X1399031Y2661665D01*
X1382776Y2653537D01*
X1366265Y2637028D01*
X1358137Y2620771D01*
X1350010Y2596134D01*
X1350010Y2555239D01*
X1358137Y2530602D01*
X1366265Y2514345D01*
X1382776Y2498089D01*
X1399031Y2489707D01*
X1431797Y2489707D01*
X1448054Y2498089D01*
X1464563Y2514345D01*
X1472692Y2530602D01*
X1472692Y2555239D01*
X1431797Y2555239D02*
G01*
X1472692Y2555239D01*
X1526794Y2661665D02*
G01*
X1526794Y2489707D01*
X1526794Y2661665D02*
G01*
X1641347Y2489707D01*
X1641347Y2661665D02*
G01*
X1641347Y2489707D01*
X1695195Y2661665D02*
G01*
X1695195Y2489707D01*
X1695195Y2661665D02*
G01*
X1752600Y2661665D01*
X1776984Y2653537D01*
X1793494Y2637028D01*
X1801621Y2620771D01*
X1809750Y2596134D01*
X1809750Y2555239D01*
X1801621Y2530602D01*
X1793494Y2514345D01*
X1776984Y2498089D01*
X1752600Y2489707D01*
X1695195Y2489707D01*
X1472692Y2112771D02*
G01*
X1464563Y2129028D01*
X1448054Y2145537D01*
X1431797Y2153665D01*
X1399031Y2153665D01*
X1382776Y2145537D01*
X1366265Y2129028D01*
X1358137Y2112771D01*
X1350010Y2088134D01*
X1350010Y2047239D01*
X1358137Y2022602D01*
X1366265Y2006345D01*
X1382776Y1990089D01*
X1399031Y1981707D01*
X1431797Y1981707D01*
X1448054Y1990089D01*
X1464563Y2006345D01*
X1472692Y2022602D01*
X1472692Y2047239D01*
X1431797Y2047239D02*
G01*
X1472692Y2047239D01*
X1526794Y2153665D02*
G01*
X1526794Y1981707D01*
X1526794Y2153665D02*
G01*
X1641347Y1981707D01*
X1641347Y2153665D02*
G01*
X1641347Y1981707D01*
X1695195Y2153665D02*
G01*
X1695195Y1981707D01*
X1695195Y2153665D02*
G01*
X1752600Y2153665D01*
X1776984Y2145537D01*
X1793494Y2129028D01*
X1801621Y2112771D01*
X1809750Y2088134D01*
X1809750Y2047239D01*
X1801621Y2022602D01*
X1793494Y2006345D01*
X1776984Y1990089D01*
X1752600Y1981707D01*
X1695195Y1981707D01*
X3048000Y8587102D02*
G01*
X3048000Y8393046D01*
X3048000Y8587102D02*
G01*
X3131058Y8587102D01*
X3158743Y8577704D01*
X3168141Y8568560D01*
X3177286Y8550018D01*
X3177286Y8522332D01*
X3168141Y8503790D01*
X3158743Y8494646D01*
X3131058Y8485502D01*
X3048000Y8485502D01*
X3376929Y8540874D02*
G01*
X3367531Y8559416D01*
X3348990Y8577704D01*
X3330702Y8587102D01*
X3293618Y8587102D01*
X3275329Y8577704D01*
X3256788Y8559416D01*
X3247390Y8540874D01*
X3238245Y8513188D01*
X3238245Y8466960D01*
X3247390Y8439274D01*
X3256788Y8420732D01*
X3275329Y8402190D01*
X3293618Y8393046D01*
X3330702Y8393046D01*
X3348990Y8402190D01*
X3367531Y8420732D01*
X3376929Y8439274D01*
X3604006Y8623932D02*
G01*
X3437890Y8328530D01*
X3664965Y8550018D02*
G01*
X3683508Y8559416D01*
X3711193Y8587102D01*
X3711193Y8393046D01*
X3827525Y8587102D02*
G01*
X3799840Y8577704D01*
X3781297Y8550018D01*
X3772154Y8503790D01*
X3772154Y8476104D01*
X3781297Y8430130D01*
X3799840Y8402190D01*
X3827525Y8393046D01*
X3846068Y8393046D01*
X3873754Y8402190D01*
X3892295Y8430130D01*
X3901440Y8476104D01*
X3901440Y8503790D01*
X3892295Y8550018D01*
X3873754Y8577704D01*
X3846068Y8587102D01*
X3827525Y8587102D01*
X4054856Y8587102D02*
G01*
X3962400Y8457816D01*
X4100829Y8457816D01*
X4054856Y8587102D02*
G01*
X4054856Y8393046D01*
X4304029Y8587102D02*
G01*
X4304029Y8393046D01*
X4304029Y8587102D02*
G01*
X4387341Y8587102D01*
X4415027Y8577704D01*
X4424172Y8568560D01*
X4433570Y8550018D01*
X4433570Y8531730D01*
X4424172Y8513188D01*
X4415027Y8503790D01*
X4387341Y8494646D01*
X4304029Y8494646D02*
G01*
X4387341Y8494646D01*
X4415027Y8485502D01*
X4424172Y8476104D01*
X4433570Y8457816D01*
X4433570Y8430130D01*
X4424172Y8411588D01*
X4415027Y8402190D01*
X4387341Y8393046D01*
X4304029Y8393046D01*
X4494529Y8522332D02*
G01*
X4494529Y8393046D01*
X4494529Y8466960D02*
G01*
X4503674Y8494646D01*
X4522215Y8513188D01*
X4540504Y8522332D01*
X4568190Y8522332D01*
X4629150Y8466960D02*
G01*
X4740147Y8466960D01*
X4740147Y8485502D01*
X4730750Y8503790D01*
X4721606Y8513188D01*
X4703063Y8522332D01*
X4675377Y8522332D01*
X4657090Y8513188D01*
X4638547Y8494646D01*
X4629150Y8466960D01*
X4629150Y8448418D01*
X4638547Y8420732D01*
X4657090Y8402190D01*
X4675377Y8393046D01*
X4703063Y8393046D01*
X4721606Y8402190D01*
X4740147Y8420732D01*
X4911852Y8522332D02*
G01*
X4911852Y8393046D01*
X4911852Y8494646D02*
G01*
X4893309Y8513188D01*
X4875022Y8522332D01*
X4847336Y8522332D01*
X4828793Y8513188D01*
X4810252Y8494646D01*
X4801108Y8466960D01*
X4801108Y8448418D01*
X4810252Y8420732D01*
X4828793Y8402190D01*
X4847336Y8393046D01*
X4875022Y8393046D01*
X4893309Y8402190D01*
X4911852Y8420732D01*
X4972811Y8587102D02*
G01*
X4972811Y8393046D01*
X5065268Y8522332D02*
G01*
X4972811Y8430130D01*
X5009895Y8466960D02*
G01*
X5074411Y8393046D01*
X5181600Y8522332D02*
G01*
X5163058Y8513188D01*
X5144770Y8494646D01*
X5135372Y8466960D01*
X5135372Y8448418D01*
X5144770Y8420732D01*
X5163058Y8402190D01*
X5181600Y8393046D01*
X5209286Y8393046D01*
X5227827Y8402190D01*
X5246370Y8420732D01*
X5255513Y8448418D01*
X5255513Y8466960D01*
X5246370Y8494646D01*
X5227827Y8513188D01*
X5209286Y8522332D01*
X5181600Y8522332D01*
X5316474Y8522332D02*
G01*
X5316474Y8430130D01*
X5325618Y8402190D01*
X5344159Y8393046D01*
X5371845Y8393046D01*
X5390388Y8402190D01*
X5418074Y8430130D01*
X5418074Y8522332D02*
G01*
X5418074Y8393046D01*
X5506720Y8587102D02*
G01*
X5506720Y8430130D01*
X5515863Y8402190D01*
X5534406Y8393046D01*
X5552947Y8393046D01*
X5479034Y8522332D02*
G01*
X5543550Y8522332D01*
X3047982Y8087034D02*
G01*
X3121873Y7893072D01*
X3195764Y8087034D02*
G01*
X3121873Y7893072D01*
X3256724Y7966963D02*
G01*
X3367559Y7966963D01*
X3367559Y7985434D01*
X3358324Y8003908D01*
X3349086Y8013143D01*
X3330615Y8022381D01*
X3302906Y8022381D01*
X3284433Y8013143D01*
X3265959Y7994672D01*
X3256724Y7966963D01*
X3256724Y7948490D01*
X3265959Y7920781D01*
X3284433Y7902308D01*
X3302906Y7893072D01*
X3330615Y7893072D01*
X3349086Y7902308D01*
X3367559Y7920781D01*
X3428519Y8022381D02*
G01*
X3428519Y7893072D01*
X3428519Y7966963D02*
G01*
X3437757Y7994672D01*
X3456228Y8013143D01*
X3474702Y8022381D01*
X3502411Y8022381D01*
X3664971Y7994672D02*
G01*
X3655735Y8013143D01*
X3628026Y8022381D01*
X3600317Y8022381D01*
X3572606Y8013143D01*
X3563371Y7994672D01*
X3572606Y7976199D01*
X3591079Y7966963D01*
X3637262Y7957726D01*
X3655735Y7948490D01*
X3664971Y7930017D01*
X3664971Y7920781D01*
X3655735Y7902308D01*
X3628026Y7893072D01*
X3600317Y7893072D01*
X3572606Y7902308D01*
X3563371Y7920781D01*
X3725931Y8087034D02*
G01*
X3735166Y8077799D01*
X3744404Y8087034D01*
X3735166Y8096272D01*
X3725931Y8087034D01*
X3735166Y8022381D02*
G01*
X3735166Y7893072D01*
X3851546Y8022381D02*
G01*
X3833073Y8013143D01*
X3814599Y7994672D01*
X3805364Y7966963D01*
X3805364Y7948490D01*
X3814599Y7920781D01*
X3833073Y7902308D01*
X3851546Y7893072D01*
X3879255Y7893072D01*
X3897726Y7902308D01*
X3916199Y7920781D01*
X3925437Y7948490D01*
X3925437Y7966963D01*
X3916199Y7994672D01*
X3897726Y8013143D01*
X3879255Y8022381D01*
X3851546Y8022381D01*
X3986397Y8022381D02*
G01*
X3986397Y7893072D01*
X3986397Y7985434D02*
G01*
X4014106Y8013143D01*
X4032577Y8022381D01*
X4060286Y8022381D01*
X4078759Y8013143D01*
X4087997Y7985434D01*
X4087997Y7893072D01*
X4291197Y8050090D02*
G01*
X4309668Y8059326D01*
X4337377Y8087034D01*
X4337377Y7893072D01*
X4407575Y7939252D02*
G01*
X4398337Y7930017D01*
X4407575Y7920781D01*
X4416811Y7930017D01*
X4407575Y7939252D01*
X4533188Y8087034D02*
G01*
X4505479Y8077799D01*
X4487006Y8050090D01*
X4477771Y8003908D01*
X4477771Y7976199D01*
X4487006Y7930017D01*
X4505479Y7902308D01*
X4533188Y7893072D01*
X4551662Y7893072D01*
X4579371Y7902308D01*
X4597844Y7930017D01*
X4607079Y7976199D01*
X4607079Y8003908D01*
X4597844Y8050090D01*
X4579371Y8077799D01*
X4551662Y8087034D01*
X4533188Y8087034D01*
X3047992Y7587038D02*
G01*
X3047992Y7393076D01*
X3047992Y7587038D02*
G01*
X3112648Y7587038D01*
X3140356Y7577802D01*
X3158827Y7559329D01*
X3168065Y7540856D01*
X3177301Y7513147D01*
X3177301Y7466967D01*
X3168065Y7439256D01*
X3158827Y7420785D01*
X3140356Y7402311D01*
X3112648Y7393076D01*
X3047992Y7393076D01*
X3349096Y7522385D02*
G01*
X3349096Y7393076D01*
X3349096Y7494676D02*
G01*
X3330625Y7513147D01*
X3312152Y7522385D01*
X3284443Y7522385D01*
X3265970Y7513147D01*
X3247496Y7494676D01*
X3238261Y7466967D01*
X3238261Y7448494D01*
X3247496Y7420785D01*
X3265970Y7402311D01*
X3284443Y7393076D01*
X3312152Y7393076D01*
X3330625Y7402311D01*
X3349096Y7420785D01*
X3437768Y7587038D02*
G01*
X3437768Y7430020D01*
X3447003Y7402311D01*
X3465476Y7393076D01*
X3483947Y7393076D01*
X3410056Y7522385D02*
G01*
X3474712Y7522385D01*
X3544907Y7466967D02*
G01*
X3655745Y7466967D01*
X3655745Y7485438D01*
X3646507Y7503911D01*
X3637272Y7513147D01*
X3618798Y7522385D01*
X3591090Y7522385D01*
X3572616Y7513147D01*
X3554145Y7494676D01*
X3544907Y7466967D01*
X3544907Y7448494D01*
X3554145Y7420785D01*
X3572616Y7402311D01*
X3591090Y7393076D01*
X3618798Y7393076D01*
X3637272Y7402311D01*
X3655745Y7420785D01*
X3725941Y7503911D02*
G01*
X3716705Y7494676D01*
X3725941Y7485438D01*
X3735176Y7494676D01*
X3725941Y7503911D01*
X3725941Y7439256D02*
G01*
X3716705Y7430020D01*
X3725941Y7420785D01*
X3735176Y7430020D01*
X3725941Y7439256D01*
X3177301Y7059330D02*
G01*
X3158827Y7077803D01*
X3131118Y7087039D01*
X3094174Y7087039D01*
X3066465Y7077803D01*
X3047992Y7059330D01*
X3047992Y7040857D01*
X3057227Y7022386D01*
X3066465Y7013148D01*
X3084936Y7003912D01*
X3140356Y6985439D01*
X3158827Y6976203D01*
X3168065Y6966968D01*
X3177301Y6948495D01*
X3177301Y6920786D01*
X3158827Y6902312D01*
X3131118Y6893077D01*
X3094174Y6893077D01*
X3066465Y6902312D01*
X3047992Y6920786D01*
X3238261Y7087039D02*
G01*
X3238261Y6893077D01*
X3238261Y7087039D02*
G01*
X3367570Y6893077D01*
X3367570Y7087039D02*
G01*
X3367570Y6893077D01*
X3437768Y7003912D02*
G01*
X3428530Y6994677D01*
X3437768Y6985439D01*
X3447003Y6994677D01*
X3437768Y7003912D01*
X3437768Y6939257D02*
G01*
X3428530Y6930021D01*
X3437768Y6920786D01*
X3447003Y6930021D01*
X3437768Y6939257D01*
X8102600Y668273D02*
G01*
X8111743Y672845D01*
X8125713Y686815D01*
X8125713Y589787D01*
X9258300Y2700273D02*
G01*
X9267443Y2704845D01*
X9281413Y2718815D01*
X9281413Y2621787D01*
X8571229Y8802115D02*
G01*
X8534400Y8705087D01*
X8571229Y8802115D02*
G01*
X8608313Y8705087D01*
X8548370Y8737345D02*
G01*
X8594343Y8737345D01*
X8280400Y8802115D02*
G01*
X8280400Y8705087D01*
X8280400Y8802115D02*
G01*
X8322056Y8802115D01*
X8335772Y8797289D01*
X8340343Y8792718D01*
X8345170Y8783574D01*
X8345170Y8774429D01*
X8340343Y8765031D01*
X8335772Y8760460D01*
X8322056Y8755887D01*
X8280400Y8755887D02*
G01*
X8322056Y8755887D01*
X8335772Y8751315D01*
X8340343Y8746489D01*
X8345170Y8737345D01*
X8345170Y8723629D01*
X8340343Y8714231D01*
X8335772Y8709660D01*
X8322056Y8705087D01*
X8280400Y8705087D01*
X8857741Y7763002D02*
G01*
X8853170Y7772145D01*
X8843772Y7781289D01*
X8834627Y7786115D01*
X8816086Y7786115D01*
X8806941Y7781289D01*
X8797543Y7772145D01*
X8792972Y7763002D01*
X8788400Y7749031D01*
X8788400Y7725918D01*
X8792972Y7712202D01*
X8797543Y7702804D01*
X8806941Y7693660D01*
X8816086Y7689087D01*
X8834627Y7689087D01*
X8843772Y7693660D01*
X8853170Y7702804D01*
X8857741Y7712202D01*
X9042400Y7786115D02*
G01*
X9042400Y7689087D01*
X9042400Y7786115D02*
G01*
X9074658Y7786115D01*
X9088627Y7781289D01*
X9097772Y7772145D01*
X9102343Y7763002D01*
X9107170Y7749031D01*
X9107170Y7725918D01*
X9102343Y7712202D01*
X9097772Y7702804D01*
X9088627Y7693660D01*
X9074658Y7689087D01*
X9042400Y7689087D01*
D11*
X968067Y1709313D02*
G01*
X968067Y1626255D01*
X962733Y1610507D01*
X957653Y1605427D01*
X947239Y1600347D01*
X936825Y1600347D01*
X926411Y1605427D01*
X921077Y1610507D01*
X915997Y1626255D01*
X915997Y1636669D01*
X1007437Y1683405D02*
G01*
X1007437Y1688485D01*
X1012517Y1698899D01*
X1017851Y1704233D01*
X1028265Y1709313D01*
X1049093Y1709313D01*
X1059507Y1704233D01*
X1064587Y1698899D01*
X1069667Y1688485D01*
X1069667Y1678071D01*
X1064587Y1667657D01*
X1054173Y1652163D01*
X1002357Y1600347D01*
X1075001Y1600347D01*
G36*
X3847998Y7231989D02*
G01*
X3847998Y6831990D01*
X6047994Y6831990D01*
X6047994Y7231989D01*
G37*
G36*
X3847998Y7732014D02*
G01*
X3847998Y7331964D01*
X6047994Y7331964D01*
X6047994Y7732014D01*
G37*
D12*
X1651000Y3301994D02*
G01*
X127000Y3301994D01*
X1651000Y2793994D02*
G01*
X127000Y2793994D01*
X1651000Y2285994D02*
G01*
X126994Y2293602D01*
D13*
X8648700Y508000D02*
G01*
X8648700Y558800D01*
X8699500Y558800D01*
X8191500Y508000D02*
G01*
X8699500Y508000D01*
X8699500Y2540000D01*
X9207500Y2540000D01*
X9207500Y7620000D01*
X8699500Y7620000D01*
X8699500Y8636000D01*
X8191500Y8636000D01*
X8191500Y508000D01*
D10*
X1269997Y1777994D02*
G01*
X1269997Y3809994D01*
X761997Y3809994D01*
X761997Y1777994D01*
X1269997Y1777994D01*
M02*
