M48
METRIC,LZ,000.000
;FILE_FORMAT=3:3
;TYPE=PLATED
;Layer: PTH_Through_Via
;EasyEDA v6.5.40, 2024-06-11 05:07:01
;a67cddfb3fce44daa9051d46cbbcc19f,10
;Gerber Generator version 0.2
;Holesize 1 = 0.305 mm
T01C0.305
;Holesize 2 = 0.306 mm
T02C0.306
%
G05
G90
T01
X067310Y020320
X067056Y025400
X069088Y025400
X068072Y025400
X068580Y020320
X069850Y020320
T02
X001072Y089098
X001072Y084018
X001072Y078938
X001072Y073858
X001072Y068778
X001072Y063698
X001072Y058618
X001072Y053538
X001072Y048458
X001072Y043378
X001072Y012898
X001072Y007818
X001072Y002738
X006152Y089098
X006152Y073858
X006152Y068778
X006152Y063698
X006152Y058618
X006152Y053538
X006152Y048458
X006152Y043378
X006152Y012898
X006152Y002738
X011232Y089098
X011232Y084018
X011232Y078938
X011232Y073858
X011232Y068778
X011232Y063698
X011232Y058618
X011232Y053538
X011232Y048458
X011232Y043378
X011232Y012898
X011232Y007818
X011232Y002738
X016312Y089098
X016312Y084018
X016312Y078938
X016312Y073858
X016312Y068778
X016312Y063698
X016312Y058618
X016312Y053538
X016312Y048458
X016312Y043378
X016312Y038298
X016312Y012898
X016312Y007818
X016312Y002738
X021392Y089098
X021392Y084018
X021392Y078938
X021392Y073858
X021392Y068778
X021392Y063698
X021392Y058618
X021392Y053538
X021392Y048458
X021392Y043378
X021392Y038298
X021392Y017978
X021392Y012898
X021392Y007818
X021392Y002738
X026472Y089098
X026472Y084018
X026472Y078938
X026472Y073858
X026472Y068778
X026472Y063698
X026472Y058618
X026472Y053538
X026472Y048458
X026472Y043378
X026472Y038298
X026472Y017978
X026472Y012898
X026472Y007818
X026472Y002738
X031552Y089098
X031552Y063698
X031552Y058618
X031552Y053538
X031552Y048458
X031552Y043378
X031552Y038298
X031552Y012898
X031552Y007818
X031552Y002738
X036632Y089098
X036632Y063698
X036632Y058618
X036632Y053538
X036632Y048458
X036632Y043378
X036632Y038298
X036632Y017978
X036632Y012898
X036632Y007818
X036632Y002738
X041712Y089098
X041712Y063698
X041712Y058618
X041712Y053538
X041712Y048458
X041712Y043378
X041712Y038298
X041712Y033218
X041712Y028138
X041712Y023058
X041712Y017978
X041712Y012898
X041712Y007818
X041712Y002738
X046792Y089098
X046792Y078938
X046792Y063698
X046792Y058618
X046792Y053538
X046792Y048458
X046792Y043378
X046792Y038298
X046792Y033218
X046792Y028138
X046792Y023058
X046792Y017978
X046792Y012898
X046792Y007818
X046792Y002738
X051872Y089098
X051872Y078938
X051872Y063698
X051872Y058618
X051872Y053538
X051872Y048458
X051872Y043378
X051872Y038298
X051872Y033218
X051872Y028138
X051872Y023058
X051872Y017978
X051872Y012898
X051872Y007818
X051872Y002738
X056952Y089098
X056952Y078938
X056952Y063698
X056952Y058618
X056952Y053538
X056952Y048458
X056952Y043378
X056952Y038298
X056952Y033218
X056952Y028138
X056952Y023058
X056952Y017978
X056952Y012898
X056952Y007818
X056952Y002738
X062032Y089098
X062032Y084018
X062032Y078938
X062032Y073858
X062032Y068778
X062032Y063698
X062032Y058618
X062032Y053538
X062032Y048458
X062032Y043378
X062032Y038298
X062032Y033218
X062032Y028138
X062032Y023058
X062032Y017978
X062032Y012898
X062032Y007818
X062032Y002738
X067112Y089098
X067112Y084018
X067112Y078938
X067112Y073858
X067112Y068778
X067112Y063698
X067112Y058618
X067112Y053538
X067112Y048458
X067112Y043378
X067112Y038298
X067112Y033218
X067112Y028138
X067112Y023058
X067112Y017978
X067112Y012898
X067112Y007818
X067112Y002738
X072192Y089098
X072192Y084018
X072192Y078938
X072192Y073858
X072192Y068778
X072192Y063698
X072192Y058618
X072192Y053538
X072192Y048458
X072192Y043378
X072192Y038298
X072192Y017978
X072192Y012898
X072192Y007818
X072192Y002738
X077272Y089098
X077272Y084018
X077272Y078938
X077272Y073858
X077272Y068778
X077272Y063698
X077272Y058618
X077272Y053538
X077272Y048458
X077272Y043378
X077272Y038298
X077272Y012898
X077272Y007818
X077272Y002738
X082352Y089098
X082352Y002738
X087432Y089098
X087432Y078938
X087432Y023058
X087432Y017978
X087432Y012898
X087432Y007818
X092512Y089098
X092512Y078938
X092512Y073858
X092512Y068778
X092512Y063698
X092512Y058618
X092512Y053538
X092512Y048458
X092512Y043378
X092512Y038298
X092512Y033218
X092512Y028138
X092512Y023058
X092512Y017978
X092512Y012898
M30
